<svg width="108" height="138" fill="none" xmlns="http://www.w3.org/2000/svg"><g clip-path="url('#clip0')"><path d="M35.1 101.3c-1.3-.4-2.7-.6-4-.4-3.9.5-7.5-1.8-8.9-5.5-.2-.5-.4-1-.7-1.5L21 93 8.8 122.4c-.7 1.7.1 3.7 1.8 4.4.4.2.9.3 1.3.3.3 0 .7 0 1-.1l12.5-3.8c.3-.1.6-.1.9-.1h.1l.3-.1 8.9-21.4-.5-.3Z" fill="#B51318"/><path d="M52.1 105c-.9.2-1.8.5-2.6.9-3.5 1.8-7.7 1-10.3-1.9-1.1-1.3-2.6-2.2-4.2-2.8l-.4-.1-9 21.8.7.1c.8.1 1.5.5 1.9 1.2l6.1 11.5c.4.8 1.1 1.4 2 1.6.3.1.7.1 1 .1.5 0 1.1-.1 1.6-.4.7-.4 1.2-1 1.5-1.7L53 104.9l-.9.1Z" fill="#D2161C"/><path d="m80.3 122.6-8.7-21-.5.3c-1 .5-1.9 1.2-2.6 2.1-2.6 3-6.8 3.7-10.3 1.9-.8-.4-1.7-.7-2.6-.9l-.9-.2 12.7 30.6c.3.8 1 1.5 1.8 1.8.4.2.9.3 1.3.3s.9-.1 1.3-.3c.7-.3 1.3-.8 1.7-1.5l6.1-11.5c.1-.1.1-.2.2-.3l.4-.4 1.1-.9h-1Z" fill="#B51318"/><path d="M99 122.4 86.8 93l-.5.9c-.3.6-.5 1-.7 1.5-1.3 3.7-5 6-8.9 5.5-1.9-.2-3.9.2-5.6 1.1l-.4.2 9.1 21.9.5-.5c.6-.5 1.4-.6 2.2-.4L95 127c.3.1.7.2 1 .2 1.4 0 2.8-.9 3.2-2.4.2-.8.1-1.6-.2-2.4Z" fill="#D2161C"/><path d="m67 60 3.7 12.8c1.8-3.2 3.2-6.7 4-10.4.8-3.6 1.1-7.2.9-10.7l-8 6.2c-.6.6-.8 1.4-.6 2.1ZM45.6 15.4c.4-.1.8-.2 1.2-.2-.4 0-.8.1-1.2.2ZM47.7 15c.4-.1.8-.1 1.2-.2-.4.1-.8.1-1.2.2ZM50.2 14.6h-.4c.2.1.3.1.4 0 0 .1 0 .1 0 0ZM46.8 92.3c-.2 0-.4-.1-.5-.1.1 0 .3 0 .5.1ZM50.2 92.8h-.1c0-.1.1-.1.1 0ZM48.6 92.6c-.1 0-.3 0-.4-.1.1 0 .2 0 .4.1Z" fill="#fff"/><path d="M62.6 15.5c-2.9-.7-5.8-1-8.7-1-1.2 0-2.4.1-3.7.2h-.4c-.3 0-.6.1-.9.1-.4.1-.8.1-1.2.2-.3 0-.6.1-.9.2-.4.1-.8.1-1.2.2-.2 0-.3.1-.5.1C60 18.9 71 30.4 74.4 44.3l4.9.2c.6 0 1.1.3 1.5.7.7.8.5 2.1-.3 2.7l-2.5 2-2.4 1.9c.2 3.5-.1 7.1-.9 10.7-.8 3.7-2.2 7.2-4 10.4l.8 2.9c0 .1.1.3.1.4 0 .4-.1.8-.3 1.2-.3.4-.6.6-1 .8h-.2c-.5.1-1 0-1.4-.3l-.8-.5C62.4 84.6 54.5 89.9 45.3 92c.4.1.7.1 1.1.2.2 0 .4.1.5.1.5.1.9.2 1.4.2.1 0 .3 0 .4.1.5.1 1 .1 1.5.2h.1c19.3 1.8 37.5-10.9 41.9-30.3 4.8-21.2-8.5-42.2-29.6-47Z" fill="#E9E9E9"/><path d="m61.3 42.6-5.6-15.3c-.4-1-1.5-1.5-2.5-1.2-.5.2-1 .6-1.2 1.2l-5.6 15.3c-.3.7-1 1.2-1.7 1.3l-16.3.6c-1.1 0-1.9.9-1.9 2 0 .6.3 1.1.7 1.5l12.9 10c.6.5.9 1.3.7 2.1l-4.5 15.7c-.3 1 .3 2.1 1.3 2.4.5.2 1.1.1 1.6-.3l13.5-9.1c.7-.4 1.5-.4 2.2 0l12.8 8.6.8.5-.8-.5c1.1-1.4 2-2.9 2.9-4.5l.8 2.8c0 .1.1.3.1.4 0-.1 0-.3-.1-.4l-.8-2.9L67 60c-.2-.8 0-1.6.7-2.1l8-6.2 2.4-1.9-2.4 1.9c-.1-2.5-.5-5-1.1-7.5l-11.4-.4c-.9.1-1.6-.4-1.9-1.2ZM70 78.2h.2c-.1-.1-.2-.1-.2 0Z" fill="#EC1D22"/><path d="m71.5 75.7-.8-2.8c-.9 1.5-1.8 3-2.9 4.5l.8.5c.4.3 1 .4 1.4.3.1 0 .1 0 .2-.1.4-.1.8-.4 1-.8.2-.4.4-.8.3-1.2v-.4ZM75.6 51.8l2.4-1.9 2.5-2c.8-.7 1-1.9.3-2.7-.4-.5-.9-.7-1.5-.7l-4.9-.2c.7 2.4 1.1 4.9 1.2 7.5Z" fill="#D2161C"/><path d="M105.7 43.4c-1.9-2-2.7-4.8-2.1-7.5.9-4.3-1.2-8.6-5.2-10.4-2.5-1.2-4.3-3.5-4.7-6.3-.7-4.3-4.2-7.6-8.6-7.9-2.8-.2-5.3-1.7-6.7-4.1-2.3-3.8-6.8-5.5-11-4.2-2.7.8-5.5.3-7.7-1.4l-.1-.1c-3.4-2.7-8.2-2.7-11.6 0-2.1 1.8-5 2.3-7.7 1.5-4.2-1.3-8.7.4-10.9 4.2-1.4 2.4-3.9 3.9-6.7 4.1-4.4.3-7.9 3.5-8.6 7.9-.4 2.7-2.2 5.1-4.7 6.3-4 1.9-6.1 6.2-5.2 10.4.6 2.7-.2 5.5-2.1 7.5-3 3.2-3.5 8-1.1 11.6 1.5 2.3 1.8 5.2.7 7.8C0 66.9 1.3 71.5 4.9 74c2.3 1.6 3.6 4.2 3.5 7-.1 4.4 2.8 8.2 7 9.3 2.2.6 4 2 5.1 3.9.3.5.5.9.6 1.3 1.5 4.1 5.6 6.6 9.9 6.1 1.2-.1 2.4 0 3.6.4 1.5.5 2.8 1.3 3.7 2.5 1.8 2.1 4.4 3.2 7.1 3.2 1.5 0 3-.4 4.4-1.1.7-.4 1.5-.6 2.3-.8 1.1-.2 2.1-.2 3.2 0 .8.2 1.6.4 2.3.8 3.9 2 8.6 1.2 11.5-2.1.6-.7 1.4-1.4 2.3-1.9 1.5-.8 3.3-1.2 5-1 4.4.5 8.4-2 9.9-6.1.2-.4.4-.9.6-1.4 1.1-2 3-3.4 5.1-3.9 4.2-1.1 7.1-4.9 7-9.3-.1-2.8 1.2-5.4 3.5-7 3.6-2.6 4.9-7.2 3.2-11.2-1.1-2.6-.8-5.5.7-7.8 2.7-3.5 2.3-8.3-.7-11.5ZM46 91.6c-.2 0-.5-.1-.7-.2C29 87.7 16.9 74 15.3 57.3c-1.8-19.3 11-37.1 30-41.4l.5-.1c.4-.1.8-.2 1.2-.2.3-.1.6-.1.9-.2.4-.1.8-.1 1.2-.2h.1c.3 0 .5-.1.8-.1h.4c1.3-.1 2.5-.2 3.6-.2 2.9 0 5.8.3 8.7 1 10.1 2.3 18.7 8.4 24.2 17.2 5.5 8.8 7.3 19.1 5 29.2C87.9 80 72 92.4 54.2 92.4c-1.2 0-2.4-.1-3.7-.2h-.2c-.5 0-1-.1-1.5-.2h-.6c-.4-.1-.9-.1-1.3-.2l-.9-.2Z" fill="#EB1E23"/></g><defs><clipPath id="clip0"><path fill="#fff" d="M0 0h107.8v137.1H0z"/></clipPath></defs></svg>